<mxfile host="app.diagrams.net" agent="Mozilla/5.0 (Windows NT 10.0; Win64; x64) AppleWebKit/537.36 (KHTML, like Gecko) Chrome/127.0.0.0 Safari/537.36" version="24.7.7">
  <diagram name="Page-1" id="fh1axtZmVzxSYdbA5Mjn">
    <mxGraphModel dx="1368" dy="1097" grid="1" gridSize="10" guides="1" tooltips="1" connect="1" arrows="1" fold="1" page="1" pageScale="1" pageWidth="850" pageHeight="1100" math="0" shadow="0">
      <root>
        <mxCell id="0" />
        <mxCell id="1" parent="0" />
        <UserObject label="&lt;div style=&quot;font-size: 1px&quot;&gt;&lt;font style=&quot;font-size:11.29px;font-family:Arial;color:#000000;direction:ltr;letter-spacing:0px;line-height:120%;opacity:1&quot;&gt;Pilot&lt;br/&gt;Abstract_Airplane* plane&lt;br/&gt;Drive(){plane-&amp;gt;fly()}&lt;br/&gt;&lt;/font&gt;&lt;/div&gt;" tags="Background" id="XYvnZdJ8ciWCmqt0MnD7-5">
          <mxCell style="verticalAlign=top;align=center;overflow=width;vsdxID=8;fillColor=#e8eef7;gradientColor=none;shape=stencil(nZBLDoAgDERP0z3SIyjew0SURgSD+Lu9kMZoXLhwN9O+tukAlrNpJg1SzDH4QW/URgNYgZTkjA4UkwJUgGXng+6DX1zLfmoymdXo17xh5zmRJ6Q42BWCfc2oJfdAr+Yv+AP9Cb7OJ3H/2JG1HNGz/84klThPVCc=);strokeColor=#000000;points=[[0.5,1,0],[1,0.5,0],[0.5,0,0],[0,0.5,0],[0.5,0.5,0]];labelBackgroundColor=none;rounded=0;html=1;whiteSpace=wrap;" vertex="1" parent="1">
            <mxGeometry x="82" y="275" width="160" height="46" as="geometry" />
          </mxCell>
        </UserObject>
        <UserObject label="&lt;div style=&quot;font-size: 1px&quot;&gt;&lt;font style=&quot;font-size:11.29px;font-family:Arial;color:#000000;direction:ltr;letter-spacing:0px;line-height:120%;opacity:1&quot;&gt;Airplane_A&lt;br/&gt;Virtual fly_imp(){default_fly()}&lt;br/&gt;&lt;/font&gt;&lt;/div&gt;" tags="Background" id="XYvnZdJ8ciWCmqt0MnD7-6">
          <mxCell style="verticalAlign=top;align=center;overflow=width;vsdxID=11;fillColor=#e8eef7;gradientColor=none;shape=stencil(nZBLDoAgDERP0z3SIyjew0SURgSD+Lu9kMZoXLhwN9O+tukAlrNpJg1SzDH4QW/URgNYgZTkjA4UkwJUgGXng+6DX1zLfmoymdXo17xh5zmRJ6Q42BWCfc2oJfdAr+Yv+AP9Cb7OJ3H/2JG1HNGz/84klThPVCc=);strokeColor=#000000;points=[[0.5,1,0],[1,0.5,0],[0.5,0,0],[0,0.5,0],[0.5,0.5,0]];labelBackgroundColor=none;rounded=0;html=1;whiteSpace=wrap;" vertex="1" parent="1">
            <mxGeometry x="69" y="438" width="160" height="46" as="geometry" />
          </mxCell>
        </UserObject>
        <UserObject label="&lt;div style=&quot;font-size: 1px&quot;&gt;&lt;p style=&quot;text-align:center;margin-left:0;margin-right:0;margin-top:0px;margin-bottom:0px;text-indent:0;vertical-align:top;direction:ltr;&quot;&gt;&lt;font style=&quot;font-size:11.29px;font-family:Arial;color:#000000;direction:ltr;letter-spacing:0px;line-height:120%;opacity:1&quot;&gt;Airplane_C&lt;br/&gt;Virtual fly_imp(){new fly method}&lt;/font&gt;&lt;font style=&quot;font-size:11.29px;font-family:Arial;color:#000000;direction:ltr;letter-spacing:0px;line-height:120%;opacity:1&quot;&gt;&lt;br/&gt;&lt;/font&gt;&lt;font style=&quot;font-size:11.29px;font-family:Arial;color:#000000;direction:ltr;letter-spacing:0px;line-height:120%;opacity:1&quot;&gt;Airplace_C* clone()&lt;br/&gt;&lt;/font&gt;&lt;/p&gt;&lt;/div&gt;" tags="Background" id="XYvnZdJ8ciWCmqt0MnD7-7">
          <mxCell style="verticalAlign=top;align=center;overflow=width;vsdxID=12;fillColor=#e8eef7;gradientColor=none;shape=stencil(nZBLDoAgDERP0z3SIyjew0SURgSD+Lu9kMZoXLhwN9O+tukAlrNpJg1SzDH4QW/URgNYgZTkjA4UkwJUgGXng+6DX1zLfmoymdXo17xh5zmRJ6Q42BWCfc2oJfdAr+Yv+AP9Cb7OJ3H/2JG1HNGz/84klThPVCc=);strokeColor=#000000;points=[[1,0.5,0],[0.5,0,0],[0.5,0.5,0],[0.5,0.5,0]];labelBackgroundColor=none;rounded=0;html=1;whiteSpace=wrap;" vertex="1" parent="1">
            <mxGeometry x="416" y="437" width="175" height="46" as="geometry" />
          </mxCell>
        </UserObject>
        <UserObject label="&lt;div style=&quot;font-size: 1px&quot;&gt;&lt;p style=&quot;text-align:center;margin-left:0;margin-right:0;margin-top:0px;margin-bottom:0px;text-indent:0;vertical-align:middle;direction:ltr;&quot;&gt;&lt;font style=&quot;font-size:11.29px;font-family:Arial;color:#000000;direction:ltr;letter-spacing:0px;line-height:120%;opacity:1&quot;&gt;Abstract_Airplane&lt;br/&gt;&lt;/font&gt;&lt;/p&gt;&lt;p style=&quot;text-align:left;margin-left:0;margin-right:0;margin-top:0px;margin-bottom:0px;text-indent:0;vertical-align:middle;direction:ltr;&quot;&gt;&lt;font style=&quot;font-size:11.29px;font-family:Arial;color:#000000;direction:ltr;letter-spacing:0px;line-height:120%;opacity:1&quot;&gt;Public: fly(){pre, fly_imp, post}&lt;br/&gt;Private:Virtual fly_imp() = 0&lt;br/&gt;Protected:default_fly(){...}&lt;/font&gt;&lt;font style=&quot;font-size:11.29px;font-family:Arial;color:#000000;direction:ltr;letter-spacing:0px;line-height:120%;opacity:1&quot;&gt;&lt;br/&gt;&lt;/font&gt;&lt;font style=&quot;font-size:11.29px;font-family:Arial;color:#000000;direction:ltr;letter-spacing:0px;line-height:120%;opacity:1&quot;&gt;abstract_Airplane *clone()&lt;br/&gt;&lt;/font&gt;&lt;/p&gt;&lt;/div&gt;" tags="Background" id="XYvnZdJ8ciWCmqt0MnD7-8">
          <mxCell style="verticalAlign=middle;align=center;overflow=width;vsdxID=15;fillColor=#e8eef7;gradientColor=none;shape=stencil(vVNLDoIwED1Nl5B+FtS14j0aLdBYKRmqyO1tbREViYlGdvN583nTPsTWbSUaiShuLZiD7NTeVohtEKWqriQo6yzEcsTWhQFZgjnV++A3wiO9dTRn3+ES6jhP+cpXUdyHCMH45m8DXMDO5SDCCUkJCXCIeEpT79Ox59Bh6JhlacYjIhEX1SZgrLDK1CEf0VpAKRM3Lym0KJ9SbSdlMwnHDbWq5fzwcb3vCU2PhBejM+7XvwF/QWbuPAuQmfsWP3y1yXnu7/9/Oh+144xRd4XSOsj2Mf+qUxcKGmf5FQ==);strokeColor=#000000;points=[[0.5,0,0],[0.5,0,0],[0.5,0.5,0],[1,0.5,0],[0.5,0.5,0]];labelBackgroundColor=none;rounded=0;html=1;whiteSpace=wrap;" vertex="1" parent="1">
            <mxGeometry x="302" y="270" width="180" height="90" as="geometry" />
          </mxCell>
        </UserObject>
        <UserObject label="&lt;div style=&quot;font-size: 1px&quot;&gt;&lt;font style=&quot;font-size:11.29px;font-family:Arial;color:#000000;direction:ltr;letter-spacing:0px;line-height:120%;opacity:1&quot;&gt;Airplane_B&lt;br/&gt;Virtual fly_imp(){default_fly()}&lt;br/&gt;&lt;/font&gt;&lt;/div&gt;" tags="Background" id="XYvnZdJ8ciWCmqt0MnD7-12">
          <mxCell style="verticalAlign=top;align=center;overflow=width;vsdxID=18;fillColor=#e8eef7;gradientColor=none;shape=stencil(nZBLDoAgDERP0z3SIyjew0SURgSD+Lu9kMZoXLhwN9O+tukAlrNpJg1SzDH4QW/URgNYgZTkjA4UkwJUgGXng+6DX1zLfmoymdXo17xh5zmRJ6Q42BWCfc2oJfdAr+Yv+AP9Cb7OJ3H/2JG1HNGz/84klThPVCc=);strokeColor=#000000;points=[[0.5,1,0],[1,0.5,0],[0.5,0,0],[0,0.5,0],[0.5,0.5,0]];labelBackgroundColor=none;rounded=0;html=1;whiteSpace=wrap;" vertex="1" parent="1">
            <mxGeometry x="250" y="438" width="160" height="46" as="geometry" />
          </mxCell>
        </UserObject>
        <UserObject label="" tags="Flowchart" id="XYvnZdJ8ciWCmqt0MnD7-15">
          <mxCell style="vsdxID=21;rotation=270;fillColor=none;gradientColor=none;strokeColor=none;spacingTop=-1;spacingBottom=-1;spacingLeft=-1;spacingRight=-1;points=[];labelBackgroundColor=none;rounded=0;html=1;whiteSpace=wrap;" vertex="1" parent="1">
            <mxGeometry x="290" y="-50" width="36" height="404" as="geometry" />
          </mxCell>
        </UserObject>
        <mxCell id="XYvnZdJ8ciWCmqt0MnD7-16" value="" style="vsdxID=22;edgeStyle=none;startArrow=none;endArrow=none;startSize=5;endSize=5;strokeColor=#000000;spacingTop=-1;spacingBottom=-1;spacingLeft=-1;spacingRight=-1;verticalAlign=middle;html=1;labelBackgroundColor=none;rounded=0;entryX=0;entryY=0.5;entryDx=0;entryDy=0;entryPerimeter=0;" edge="1" parent="XYvnZdJ8ciWCmqt0MnD7-15" target="XYvnZdJ8ciWCmqt0MnD7-5">
          <mxGeometry x="-174" y="210" relative="1" as="geometry">
            <Array as="points" />
            <mxPoint x="-184" y="212.52083333333331" as="sourcePoint" />
            <mxPoint x="-202" y="271.4375" as="targetPoint" />
          </mxGeometry>
        </mxCell>
        <mxCell id="XYvnZdJ8ciWCmqt0MnD7-17" value="&lt;div style=&quot;font-size: 1px&quot;&gt;&lt;p style=&quot;text-align:left;margin-left:0;margin-right:0;margin-top:0px;margin-bottom:0px;text-indent:0;vertical-align:middle;direction:ltr;&quot;&gt;&lt;font style=&quot;font-size:12.7px;font-family:Arial;color:#000000;direction:ltr;letter-spacing:0px;line-height:120%;opacity:1&quot;&gt;Pilot &lt;/font&gt;&lt;font style=&quot;font-size:12.7px;font-family:Arial;color:#000000;direction:ltr;letter-spacing:0px;line-height:120%;opacity:1&quot;&gt;need inteface semantic airplane, pilot&lt;/font&gt;&lt;font style=&quot;font-size:12.7px;font-family:Arial;color:#000000;direction:ltr;letter-spacing:0px;line-height:120%;opacity:1&quot;&gt; &lt;/font&gt;&lt;font style=&quot;font-size:12.7px;font-family:Arial;color:#000000;direction:ltr;letter-spacing:0px;line-height:120%;opacity:1&quot;&gt;only&lt;/font&gt;&lt;font style=&quot;font-size:12.7px;font-family:Arial;color:#000000;direction:ltr;letter-spacing:0px;line-height:120%;opacity:1&quot;&gt; depends on abstract interface. It follows &lt;/font&gt;&lt;font style=&quot;font-size:12.7px;font-family:Arial;color:#000000;direction:ltr;letter-spacing:0px;line-height:120%;opacity:1&quot;&gt;&lt;b&gt;DIP(dependcy inversion rules)&lt;/b&gt;&lt;/font&gt;&lt;font style=&quot;font-size:12.7px;font-family:Arial;color:#000000;direction:ltr;letter-spacing:0px;line-height:120%;opacity:1&quot;&gt;&lt;br/&gt;&lt;/font&gt;&lt;/p&gt;&lt;/div&gt;" style="verticalAlign=middle;align=left;overflow=width;vsdxID=23;fillColor=#e8eef7;gradientColor=none;shape=stencil(UzV2Ls5ILEhVNTIoLinKz04tz0wpyVA1dlE1MsrMy0gtyiwBslSNXVWNndPyi1LTi/JL81Ig/IJEkEoQKze/DGRCBUSfoZmemTlIl5FBJUTEAMxzgyjOycxDUmxAnkJDAzxKMR2AphzIQDge4m9kOXSPAoUggWTsCgA=);strokeColor=#000000;spacingTop=-1;spacingBottom=-1;spacingLeft=-1;spacingRight=-1;points=[];labelBackgroundColor=none;rounded=0;html=1;whiteSpace=wrap;" vertex="1" parent="XYvnZdJ8ciWCmqt0MnD7-15">
          <mxGeometry x="-185" y="193.58333333333331" width="384" height="37.875" as="geometry" />
        </mxCell>
        <UserObject label="" tags="Flowchart" id="XYvnZdJ8ciWCmqt0MnD7-18">
          <mxCell style="vsdxID=24;rotation=270;fillColor=none;gradientColor=none;strokeColor=none;spacingTop=-1;spacingBottom=-1;spacingLeft=-1;spacingRight=-1;points=[];labelBackgroundColor=none;rounded=0;html=1;whiteSpace=wrap;" vertex="1" parent="1">
            <mxGeometry x="588" y="189" width="81" height="266" as="geometry" />
          </mxCell>
        </UserObject>
        <mxCell id="XYvnZdJ8ciWCmqt0MnD7-19" value="" style="vsdxID=25;edgeStyle=none;startArrow=none;endArrow=oval;startSize=5;endSize=5;strokeColor=#000000;spacingTop=-1;spacingBottom=-1;spacingLeft=-1;spacingRight=-1;verticalAlign=middle;html=1;labelBackgroundColor=none;rounded=0;startFill=0;endFill=1;" edge="1" parent="XYvnZdJ8ciWCmqt0MnD7-18">
          <mxGeometry x="-92" y="174" relative="1" as="geometry">
            <Array as="points" />
            <mxPoint x="-92" y="134" as="sourcePoint" />
            <mxPoint x="-128" y="114" as="targetPoint" />
          </mxGeometry>
        </mxCell>
        <mxCell id="XYvnZdJ8ciWCmqt0MnD7-20" value="&lt;div style=&quot;font-size: 1px&quot;&gt;&lt;p style=&quot;text-align:left;margin-left:0;margin-right:0;margin-top:0px;margin-bottom:0px;text-indent:0;vertical-align:middle;direction:ltr;&quot;&gt;&lt;font style=&quot;font-size:12.7px;font-family:Arial;color:#000000;direction:ltr;letter-spacing:0px;line-height:120%;opacity:1&quot;&gt;it follow&lt;/font&gt;&lt;font style=&quot;font-size:12.7px;font-family:Arial;color:#000000;direction:ltr;letter-spacing:0px;line-height:120%;opacity:1&quot;&gt;&lt;b&gt; Non virtual interface&lt;/b&gt;&lt;/font&gt;&lt;font style=&quot;font-size:12.7px;font-family:Arial;color:#000000;direction:ltr;letter-spacing:0px;line-height:120%;opacity:1&quot;&gt;. Public non-virtual fly, you can add some common pre and post action here. Then it use &lt;/font&gt;&lt;font style=&quot;font-size:12.7px;font-family:Arial;color:#000000;direction:ltr;letter-spacing:0px;line-height:120%;opacity:1&quot;&gt;&lt;b&gt;template method&lt;/b&gt;&lt;/font&gt;&lt;font style=&quot;font-size:12.7px;font-family:Arial;color:#000000;direction:ltr;letter-spacing:0px;line-height:120%;opacity:1&quot;&gt; to transfer to private virtual implementation function&lt;br/&gt;&lt;/font&gt;&lt;/p&gt;&lt;/div&gt;" style="verticalAlign=middle;align=left;overflow=width;vsdxID=26;fillColor=#e8eef7;gradientColor=none;shape=stencil(UzV2Ls5ILEhVNTIoLinKz04tz0wpyVA1dlE1MsrMy0gtyiwBslSNXVWNndPyi1LTi/JL81Ig/IJEkEoQKze/DGRCBUSfoZmemTlIl5FBJUTEAMxzgyjOycxDUmxAnkJDAzxKMR2AphzIQDge4m9kOXSPAoUggWTsCgA=);strokeColor=#000000;spacingTop=-1;spacingBottom=-1;spacingLeft=-1;spacingRight=-1;points=[];labelBackgroundColor=none;rounded=0;html=1;whiteSpace=wrap;" vertex="1" parent="XYvnZdJ8ciWCmqt0MnD7-18">
          <mxGeometry x="-93" y="93" width="266" height="81" as="geometry" />
        </mxCell>
        <UserObject label="" tags="Flowchart" id="XYvnZdJ8ciWCmqt0MnD7-21">
          <mxCell style="vsdxID=27;rotation=270;fillColor=none;gradientColor=none;strokeColor=none;spacingTop=-1;spacingBottom=-1;spacingLeft=-1;spacingRight=-1;points=[];labelBackgroundColor=none;rounded=0;html=1;whiteSpace=wrap;" vertex="1" parent="1">
            <mxGeometry x="383" y="290" width="36" height="444" as="geometry" />
          </mxCell>
        </UserObject>
        <mxCell id="XYvnZdJ8ciWCmqt0MnD7-22" value="" style="vsdxID=28;edgeStyle=none;startArrow=none;endArrow=oval;startSize=5;endSize=5;strokeColor=#000000;spacingTop=-1;spacingBottom=-1;spacingLeft=-1;spacingRight=-1;verticalAlign=middle;html=1;labelBackgroundColor=none;rounded=0;startFill=0;endFill=1;" edge="1" parent="XYvnZdJ8ciWCmqt0MnD7-21">
          <mxGeometry x="-204" y="240" relative="1" as="geometry">
            <Array as="points" />
            <mxPoint x="-204" y="222" as="sourcePoint" />
            <mxPoint x="-233" y="174" as="targetPoint" />
          </mxGeometry>
        </mxCell>
        <mxCell id="XYvnZdJ8ciWCmqt0MnD7-23" value="&lt;div style=&quot;font-size: 1px&quot;&gt;&lt;p style=&quot;text-align:left;margin-left:0;margin-right:0;margin-top:0px;margin-bottom:0px;text-indent:0;vertical-align:middle;direction:ltr;&quot;&gt;&lt;font style=&quot;font-size:12.7px;font-family:Arial;color:#000000;direction:ltr;letter-spacing:0px;line-height:120%;opacity:1&quot;&gt;If planeA and planeB share the same default_fly, you can put it in the base class and declare it as protected member function&lt;br/&gt;&lt;/font&gt;&lt;/p&gt;&lt;/div&gt;" style="verticalAlign=middle;align=left;overflow=width;vsdxID=29;fillColor=#e8eef7;gradientColor=none;shape=stencil(UzV2Ls5ILEhVNTIoLinKz04tz0wpyVA1dlE1MsrMy0gtyiwBslSNXVWNndPyi1LTi/JL81Ig/IJEkEoQKze/DGRCBUSfoZmemTlIl5FBJUTEAMxzgyjOycxDUmxAnkJDAzxKMR2AphzIQDge4m9kOXSPAoUggWTsCgA=);strokeColor=#000000;spacingTop=-1;spacingBottom=-1;spacingLeft=-1;spacingRight=-1;points=[];labelBackgroundColor=none;rounded=0;html=1;whiteSpace=wrap;" vertex="1" parent="XYvnZdJ8ciWCmqt0MnD7-21">
          <mxGeometry x="-205" y="204" width="444" height="36" as="geometry" />
        </mxCell>
        <UserObject label="" tags="Flowchart" id="XYvnZdJ8ciWCmqt0MnD7-24">
          <mxCell style="vsdxID=30;rotation=270;fillColor=none;gradientColor=none;strokeColor=none;spacingTop=-1;spacingBottom=-1;spacingLeft=-1;spacingRight=-1;points=[];labelBackgroundColor=none;rounded=0;html=1;whiteSpace=wrap;" vertex="1" parent="1">
            <mxGeometry x="626" y="230" width="150" height="292" as="geometry" />
          </mxCell>
        </UserObject>
        <mxCell id="XYvnZdJ8ciWCmqt0MnD7-25" value="" style="vsdxID=31;edgeStyle=none;startArrow=none;endArrow=oval;startSize=5;endSize=5;strokeColor=#000000;spacingTop=-1;spacingBottom=-1;spacingLeft=-1;spacingRight=-1;verticalAlign=middle;html=1;labelBackgroundColor=none;rounded=0;startFill=0;endFill=1;" edge="1" parent="XYvnZdJ8ciWCmqt0MnD7-24">
          <mxGeometry x="-100" y="152" relative="1" as="geometry">
            <Array as="points" />
            <mxPoint x="-120" y="170.33333333333334" as="sourcePoint" />
            <mxPoint x="-189" y="113" as="targetPoint" />
          </mxGeometry>
        </mxCell>
        <mxCell id="XYvnZdJ8ciWCmqt0MnD7-26" value="&lt;div style=&quot;font-size: 1px&quot;&gt;&lt;p style=&quot;text-align:left;margin-left:0;margin-right:0;margin-top:0px;margin-bottom:0px;text-indent:0;vertical-align:middle;direction:ltr;&quot;&gt;&lt;font style=&quot;font-size:12.7px;font-family:Arial;color:#000000;direction:ltr;letter-spacing:0px;line-height:120%;opacity:1&quot;&gt;If Abstract base class still have value semantic, you can use virtual constructor idiom.&lt;/font&gt;&lt;font style=&quot;font-size:12.7px;font-family:Arial;color:#000000;direction:ltr;letter-spacing:0px;line-height:120%;opacity:1&quot;&gt;&lt;br/&gt;&lt;/font&gt;&lt;/p&gt;&lt;/div&gt;" style="verticalAlign=middle;align=left;overflow=width;vsdxID=32;fillColor=#e8eef7;gradientColor=none;shape=stencil(UzV2Ls5ILEhVNTIoLinKz04tz0wpyVA1dlE1MsrMy0gtyiwBslSNXVWNndPyi1LTi/JL81Ig/IJEkEoQKze/DGRCBUSfoZmemTlIl5FBJUTEAMxzgyjOycxDUmxAnkJDAzxKMR2AphzIQDge4m9kOXSPAoUggWTsCgA=);strokeColor=#000000;spacingTop=-1;spacingBottom=-1;spacingLeft=-1;spacingRight=-1;points=[];labelBackgroundColor=none;rounded=0;html=1;whiteSpace=wrap;" vertex="1" parent="XYvnZdJ8ciWCmqt0MnD7-24">
          <mxGeometry x="-121" y="140.21" width="271" height="39.79" as="geometry" />
        </mxCell>
        <UserObject label="&lt;div style=&quot;font-size: 1px&quot;&gt;&lt;p style=&quot;text-align:center;margin-left:0;margin-right:0;margin-top:0px;margin-bottom:0px;text-indent:0;vertical-align:top;direction:ltr;&quot;&gt;&lt;font style=&quot;font-size:11.29px;font-family:Arial;color:#000000;direction:ltr;letter-spacing:0px;line-height:120%;opacity:1&quot;&gt;Airport&lt;br/&gt;&lt;/font&gt;&lt;font style=&quot;font-size:11.29px;font-family:Arial;color:#000000;direction:ltr;letter-spacing:0px;line-height:120%;opacity:1&quot;&gt;Abstract_Airplane* plane&lt;br/&gt;&lt;/font&gt;&lt;font style=&quot;font-size:11.29px;font-family:Arial;color:#000000;direction:ltr;letter-spacing:0px;line-height:120%;opacity:1&quot;&gt;Add_Plane&lt;/font&gt;&lt;font style=&quot;font-size:11.29px;font-family:Arial;color:#000000;direction:ltr;letter-spacing:0px;line-height:120%;opacity:1&quot;&gt;{plane-&amp;gt;&lt;/font&gt;&lt;font style=&quot;font-size:11.29px;font-family:Arial;color:#000000;direction:ltr;letter-spacing:0px;line-height:120%;opacity:1&quot;&gt;clone()&lt;/font&gt;&lt;font style=&quot;font-size:11.29px;font-family:Arial;color:#000000;direction:ltr;letter-spacing:0px;line-height:120%;opacity:1&quot;&gt;}&lt;br/&gt;&lt;/font&gt;&lt;/p&gt;&lt;/div&gt;" tags="Background" id="XYvnZdJ8ciWCmqt0MnD7-27">
          <mxCell style="verticalAlign=top;align=center;overflow=width;vsdxID=33;fillColor=#e8eef7;gradientColor=none;shape=stencil(nZBLDoAgDERP0z3SIyjew0SURgSD+Lu9kMZoXLhwN9O+tukAlrNpJg1SzDH4QW/URgNYgZTkjA4UkwJUgGXng+6DX1zLfmoymdXo17xh5zmRJ6Q42BWCfc2oJfdAr+Yv+AP9Cb7OJ3H/2JG1HNGz/84klThPVCc=);strokeColor=#000000;points=[[0.5,1,0],[1,0.5,0],[0.5,0,0],[0,0.5,0],[0.5,0.5,0]];labelBackgroundColor=none;rounded=0;html=1;whiteSpace=wrap;" vertex="1" parent="1">
            <mxGeometry x="80" y="328" width="160" height="46" as="geometry" />
          </mxCell>
        </UserObject>
        <UserObject label="" tags="Flowchart" id="XYvnZdJ8ciWCmqt0MnD7-28">
          <mxCell style="vsdxID=35;rotation=270;fillColor=none;gradientColor=none;strokeColor=none;spacingTop=-1;spacingBottom=-1;spacingLeft=-1;spacingRight=-1;points=[];labelBackgroundColor=none;rounded=0;html=1;whiteSpace=wrap;" vertex="1" parent="1">
            <mxGeometry x="202" y="263" width="36" height="270" as="geometry" />
          </mxCell>
        </UserObject>
        <mxCell id="XYvnZdJ8ciWCmqt0MnD7-29" value="" style="vsdxID=36;edgeStyle=none;startArrow=none;endArrow=none;startSize=5;endSize=5;strokeColor=#000000;spacingTop=-1;spacingBottom=-1;spacingLeft=-1;spacingRight=-1;verticalAlign=middle;html=1;labelBackgroundColor=none;rounded=0;" edge="1" parent="XYvnZdJ8ciWCmqt0MnD7-28">
          <mxGeometry x="-117" y="153" relative="1" as="geometry">
            <Array as="points" />
            <mxPoint x="-117" y="135" as="sourcePoint" />
            <mxPoint x="-122" y="97" as="targetPoint" />
          </mxGeometry>
        </mxCell>
        <mxCell id="XYvnZdJ8ciWCmqt0MnD7-30" value="&lt;div style=&quot;font-size: 1px&quot;&gt;&lt;p style=&quot;text-align:left;margin-left:0;margin-right:0;margin-top:0px;margin-bottom:0px;text-indent:0;vertical-align:middle;direction:ltr;&quot;&gt;&lt;font style=&quot;font-size:12.7px;font-family:Arial;color:#000000;direction:ltr;letter-spacing:0px;line-height:120%;opacity:1&quot;&gt;Airport need value semantic airplane, can use clone to create new plane&lt;br/&gt;&lt;/font&gt;&lt;/p&gt;&lt;/div&gt;" style="verticalAlign=middle;align=left;overflow=width;vsdxID=37;fillColor=#e8eef7;gradientColor=none;shape=stencil(UzV2Ls5ILEhVNTIoLinKz04tz0wpyVA1dlE1MsrMy0gtyiwBslSNXVWNndPyi1LTi/JL81Ig/IJEkEoQKze/DGRCBUSfoZmemTlIl5FBJUTEAMxzgyjOycxDUmxAnkJDAzxKMR2AphzIQDge4m9kOXSPAoUggWTsCgA=);strokeColor=#000000;spacingTop=-1;spacingBottom=-1;spacingLeft=-1;spacingRight=-1;points=[];labelBackgroundColor=none;rounded=0;html=1;whiteSpace=wrap;" vertex="1" parent="XYvnZdJ8ciWCmqt0MnD7-28">
          <mxGeometry x="-118" y="117" width="270" height="36" as="geometry" />
        </mxCell>
        <UserObject label="" tags="Connector" id="XYvnZdJ8ciWCmqt0MnD7-31">
          <mxCell style="vsdxID=14;edgeStyle=none;startArrow=none;endArrow=block;startSize=5;endSize=5;strokeColor=#4677bf;spacingTop=0;spacingBottom=0;spacingLeft=0;spacingRight=0;verticalAlign=middle;html=1;labelBackgroundColor=#FFFFFF;rounded=0;exitX=1;exitY=0.5;exitDx=0;exitDy=0;exitPerimeter=0;entryX=0;entryY=0.5;entryDx=0;entryDy=0;entryPerimeter=0;" edge="1" parent="1" source="XYvnZdJ8ciWCmqt0MnD7-5" target="XYvnZdJ8ciWCmqt0MnD7-8">
            <mxGeometry relative="1" as="geometry">
              <mxPoint x="-1" as="offset" />
              <Array as="points">
                <mxPoint x="258" y="298" />
                <mxPoint x="258" y="315" />
              </Array>
            </mxGeometry>
          </mxCell>
        </UserObject>
        <UserObject label="" tags="Connector" id="XYvnZdJ8ciWCmqt0MnD7-32">
          <mxCell style="vsdxID=13;edgeStyle=none;startFill=0;startArrow=block;endArrow=none;startSize=5;endSize=5;strokeColor=#4677bf;spacingTop=0;spacingBottom=0;spacingLeft=0;spacingRight=0;verticalAlign=middle;html=1;labelBackgroundColor=#FFFFFF;rounded=0;exitX=0.5;exitY=1;exitDx=0;exitDy=0;exitPerimeter=0;entryX=0.49714285714285716;entryY=0;entryDx=0;entryDy=0;entryPerimeter=0;" edge="1" parent="1" source="XYvnZdJ8ciWCmqt0MnD7-8" target="XYvnZdJ8ciWCmqt0MnD7-7">
            <mxGeometry relative="1" as="geometry">
              <mxPoint x="-1" as="offset" />
              <Array as="points">
                <mxPoint x="392" y="422" />
                <mxPoint x="502.5" y="422" />
              </Array>
            </mxGeometry>
          </mxCell>
        </UserObject>
        <UserObject label="" tags="Connector" id="XYvnZdJ8ciWCmqt0MnD7-33">
          <mxCell style="vsdxID=10;edgeStyle=none;startFill=0;startArrow=block;endArrow=none;startSize=5;endSize=5;strokeColor=#4677bf;spacingTop=0;spacingBottom=0;spacingLeft=0;spacingRight=0;verticalAlign=middle;html=1;labelBackgroundColor=#FFFFFF;rounded=0;exitX=0.5;exitY=1;exitDx=0;exitDy=0;exitPerimeter=0;entryX=0.5;entryY=0;entryDx=0;entryDy=0;entryPerimeter=0;" edge="1" parent="1" source="XYvnZdJ8ciWCmqt0MnD7-8" target="XYvnZdJ8ciWCmqt0MnD7-6">
            <mxGeometry relative="1" as="geometry">
              <mxPoint as="offset" />
              <Array as="points">
                <mxPoint x="392" y="422" />
                <mxPoint x="150" y="422" />
              </Array>
            </mxGeometry>
          </mxCell>
        </UserObject>
        <UserObject label="" tags="Connector" id="XYvnZdJ8ciWCmqt0MnD7-37">
          <mxCell style="vsdxID=34;edgeStyle=none;startArrow=none;endArrow=block;startSize=5;endSize=5;strokeColor=#4677bf;spacingTop=0;spacingBottom=0;spacingLeft=0;spacingRight=0;verticalAlign=middle;html=1;labelBackgroundColor=#FFFFFF;rounded=0;exitX=1;exitY=0.5;exitDx=0;exitDy=0;exitPerimeter=0;entryX=0;entryY=0.5;entryDx=0;entryDy=0;entryPerimeter=0;" edge="1" parent="1" source="XYvnZdJ8ciWCmqt0MnD7-27" target="XYvnZdJ8ciWCmqt0MnD7-8">
            <mxGeometry relative="1" as="geometry">
              <mxPoint as="offset" />
              <Array as="points">
                <mxPoint x="258" y="351" />
                <mxPoint x="258" y="330" />
                <mxPoint x="258" y="315" />
              </Array>
            </mxGeometry>
          </mxCell>
        </UserObject>
        <UserObject label="" tags="Connector" id="XYvnZdJ8ciWCmqt0MnD7-38">
          <mxCell style="vsdxID=19;edgeStyle=none;startFill=0;startArrow=block;endArrow=none;startSize=5;endSize=5;strokeColor=#4677bf;spacingTop=0;spacingBottom=0;spacingLeft=0;spacingRight=0;verticalAlign=middle;html=1;labelBackgroundColor=#FFFFFF;rounded=0;exitX=0.5;exitY=1;exitDx=0;exitDy=0;exitPerimeter=0;entryX=0.5;entryY=0;entryDx=0;entryDy=0;entryPerimeter=0;" edge="1" parent="1" source="XYvnZdJ8ciWCmqt0MnD7-8" target="XYvnZdJ8ciWCmqt0MnD7-12">
            <mxGeometry relative="1" as="geometry">
              <mxPoint as="offset" />
              <Array as="points">
                <mxPoint x="392" y="422" />
                <mxPoint x="330" y="422" />
              </Array>
            </mxGeometry>
          </mxCell>
        </UserObject>
        <mxCell id="XYvnZdJ8ciWCmqt0MnD7-11" value="&lt;div style=&quot;font-size: 1px&quot;&gt;&lt;p style=&quot;text-align:left;margin-left:0;margin-right:0;margin-top:0px;margin-bottom:0px;text-indent:0;vertical-align:middle;direction:ltr;&quot;&gt;&lt;font style=&quot;font-size:12.7px;font-family:Arial;color:#000000;direction:ltr;letter-spacing:0px;line-height:120%;opacity:1&quot;&gt;1) &lt;/font&gt;&lt;font style=&quot;font-size:12.7px;font-family:Arial;color:#000000;direction:ltr;letter-spacing:0px;line-height:120%;opacity:1&quot;&gt;It follow &lt;/font&gt;&lt;font style=&quot;font-size:12.7px;font-family:Arial;color:#000000;direction:ltr;letter-spacing:0px;line-height:120%;opacity:1&quot;&gt;&lt;b&gt;Non leaf abstract&lt;/b&gt;&lt;/font&gt;&lt;font style=&quot;font-size:12.7px;font-family:Arial;color:#000000;direction:ltr;letter-spacing:0px;line-height:120%;opacity:1&quot;&gt; rule.  Non-leaf should be abstract with define a pure virtual function fly_imp() = 0. In this way, child class can not forget to customize fly behavior&lt;/font&gt;&lt;font style=&quot;font-size:12.7px;font-family:Arial;color:#000000;direction:ltr;letter-spacing:0px;line-height:120%;opacity:1&quot;&gt;.&lt;/font&gt;&lt;/p&gt;&lt;p style=&quot;text-align:left;margin-left:0;margin-right:0;margin-top:0px;margin-bottom:0px;text-indent:0;vertical-align:middle;direction:ltr;&quot;&gt;&lt;font style=&quot;font-size:12.7px;font-family:Arial;color:#000000;direction:ltr;letter-spacing:0px;line-height:120%;opacity:1&quot;&gt;2) Abstract base class prohibit &lt;/font&gt;&lt;font style=&quot;font-size:12.7px;font-family:Arial;color:#000000;direction:ltr;letter-spacing:0px;line-height:120%;opacity:1&quot;&gt;&lt;b&gt;two dangerous actions:&lt;/b&gt;&lt;/font&gt;&lt;font style=&quot;font-size:12.7px;font-family:Arial;color:#000000;direction:ltr;letter-spacing:0px;line-height:120%;opacity:1&quot;&gt; 1) Abstract_Airplane* a1 = a2; 2) Abstract_Airplane arr[10];&lt;/font&gt;&lt;font style=&quot;font-size:12.7px;font-family:Arial;color:#000000;direction:ltr;letter-spacing:0px;line-height:120%;opacity:1&quot;&gt;&lt;br&gt;&lt;/font&gt;&lt;/p&gt;&lt;/div&gt;" style="verticalAlign=middle;align=left;overflow=width;vsdxID=17;fillColor=#e8eef7;gradientColor=none;shape=stencil(UzV2Ls5ILEhVNTIoLinKz04tz0wpyVA1dlE1MsrMy0gtyiwBslSNXVWNndPyi1LTi/JL81Ig/IJEkEoQKze/DGRCBUSfoZmemTlIl5FBJUTEAMxzgyjOycxDUmxAnkJDAzxKMR2AphzIQDge4m9kOXSPAoUggWTsCgA=);strokeColor=#000000;spacingTop=-1;spacingBottom=-1;spacingLeft=-1;spacingRight=-1;points=[];labelBackgroundColor=none;rounded=0;html=1;whiteSpace=wrap;" vertex="1" parent="1">
          <mxGeometry x="170" y="189" width="555.76" height="60" as="geometry" />
        </mxCell>
        <mxCell id="XYvnZdJ8ciWCmqt0MnD7-39" value="" style="endArrow=none;html=1;rounded=0;entryX=0.09;entryY=1.056;entryDx=0;entryDy=0;entryPerimeter=0;" edge="1" parent="1" target="XYvnZdJ8ciWCmqt0MnD7-11">
          <mxGeometry width="50" height="50" relative="1" as="geometry">
            <mxPoint x="380" y="270" as="sourcePoint" />
            <mxPoint x="430" y="220" as="targetPoint" />
          </mxGeometry>
        </mxCell>
      </root>
    </mxGraphModel>
  </diagram>
</mxfile>
